<mxfile host="app.diagrams.net" modified="2023-06-01T21:35:03.656Z" agent="Mozilla/5.0 (Windows NT 10.0; Win64; x64) AppleWebKit/537.36 (KHTML, like Gecko) Chrome/114.0.0.0 Safari/537.36" version="21.3.6" etag="fW4aCRPjd7784a9H8zxn" type="github">
  <diagram name="PÃ¡gina-1" id="nOtMmP6APh9oW0osmb3p">
    <mxGraphModel>
      <root>
        <mxCell id="0" />
        <mxCell id="1" parent="0" />
      </root>
    </mxGraphModel>
  </diagram>
</mxfile>
